# xmcd CD database file
#
# Track frame offsets:
#	150
#	23899
#	56345
#	68871
#	85872
#	119056
#	158549
#	188514
#	207841
#	226679
#
# Disc length: 3367 seconds
#
# Revision: 0
# Processed by: cddbd v1.5.1PL2 Copyright (c) Steve Scherf et al.
# Submitted via: CDex 1.51
#
DISCID=760d250a
DTITLE=Trio BraamDeJoodeVatcher - Change This Song
DYEAR=2005
DGENRE=Jazz
TTITLE0=Angsts, Once High
TTITLE1=Hotch As Ginseng
TTITLE2=Snitch An Egg, Soh
TTITLE3=Songs Each Night
TTITLE4=Can Ghosts Neigh?
TTITLE5=Congesting Hash
TTITLE6=Nightsong Aches
TTITLE7=Gosh, Ethnics Gan
TTITLE8=Hatching Segno's
TTITLE9=High Agons Scent
EXTD=YEAR: 2005
EXTT0=
EXTT1=
EXTT2=
EXTT3=
EXTT4=
EXTT5=
EXTT6=
EXTT7=
EXTT8=
EXTT9=
PLAYORDER=
